<svg xmlns="http://www.w3.org/2000/svg" viewBox="0 0 1440 320"><path fill="#0099ff" fill-opacity="1" d="M0,320L34.3,298.7C68.6,277,137,235,206,192C274.3,149,343,107,411,85.3C480,64,549,64,617,69.3C685.7,75,754,85,823,122.7C891.4,160,960,224,1029,245.3C1097.1,267,1166,245,1234,224C1302.9,203,1371,181,1406,170.7L1440,160L1440,320L1405.7,320C1371.4,320,1303,320,1234,320C1165.7,320,1097,320,1029,320C960,320,891,320,823,320C754.3,320,686,320,617,320C548.6,320,480,320,411,320C342.9,320,274,320,206,320C137.1,320,69,320,34,320L0,320Z"></path></svg>